<svg xmlns="http://www.w3.org/2000/svg" viewBox="0 0 150.3 141"><defs><style>.cls-1{fill:#64688c;}.cls-2{fill:#12172c;opacity:0.4;}</style></defs><title>current-score_1</title><g id="Calque_2" data-name="Calque 2"><g id="Calque_1-2" data-name="Calque 1"><g id="current-score"><path class="cls-1" d="M149.79,53.81c-1.8-6.41-6.17-10.6-12.91-11.67-9.47-1.5-19-2.93-28.49-4-3.2-.37-5.08-1.54-6.51-4.41-4.14-8.35-8.59-16.54-12.79-24.85C86.18,3.07,81.38.54,75.23.08v0h-.16v0c-6.15.46-10.95,3-13.86,8.75-4.2,8.31-8.65,16.5-12.79,24.85-1.42,2.87-3.3,4-6.51,4.41-9.52,1.12-19,2.55-28.49,4C6.68,43.21,2.31,47.4.51,53.81-1.22,60,1.66,65.24,6,69c7.21,6.22,13.46,13.36,20.48,19.74,1.94,1.76,2.38,3.42,1.83,6.06-1.83,8.91-3.18,17.91-4.87,26.85s2.66,16,11.37,18.77c4.28,1.36,7.85-.17,11.43-1.94,9.66-4.77,19.27-9.64,28.9-14.46,9.63,4.82,19.24,9.69,28.9,14.46,3.58,1.77,7.15,3.3,11.43,1.94,8.72-2.75,13.07-9.84,11.37-18.77s-3-17.94-4.87-26.85c-.55-2.64-.11-4.3,1.83-6.06,7-6.38,13.28-13.52,20.49-19.74C148.64,65.24,151.52,60,149.79,53.81Z"/><path class="cls-2" d="M75.19,0C82.25.14,87,3.75,90.1,9.89,94,17.63,98,25.3,101.64,33.14A7.87,7.87,0,0,0,108.45,38c9.51,1.25,19,2.5,28.48,4C149,44,154,55.76,147,65.71c-5.51,7.79-13.56,13.16-20.17,19.93-3.9,4-5.43,7.61-4,13.19A218.83,218.83,0,0,1,127,121.77c.91,6.21-.22,12-5.64,16.08s-11.18,4-17.25.76c-9.55-5.07-19.31-9.75-29-14.59l0-.06q0-61.95,0-123.9Z"/></g></g></g></svg>