<svg xmlns="http://www.w3.org/2000/svg" viewBox="0 0 511.9 419.86"><defs><style>.cls-1{fill:#fcbe00;}.cls-2{fill:#fed300;}.cls-3{fill:#fe9e00;}.cls-4{fill:#fe9f01;}.cls-5{fill:#913954;}.cls-6{fill:#af4868;}</style></defs><title>highest-score_2</title><g id="Calque_2" data-name="Calque 2"><g id="Calque_1-2" data-name="Calque 1"><g id="highest-score"><path class="cls-1" d="M255.91,296.87q0,31.49,0,63H420.81a11.76,11.76,0,0,0,.88-1.78q26.34-89.5,52.65-179a44.79,44.79,0,0,1-50.21-31.33c-17.93,7.06-51.64,20.39-66.87,26.46-3.72,1.49-5.39,1.36-7.6-2.45-19.16-33.06-38.61-65.95-58-98.89-6.59,6.68-13.82,12.39-23.08,15a49.83,49.83,0,0,1-12.67,2v83Z"/><path class="cls-2" d="M256,296.87q0,31.49,0,63H91.13a11.7,11.7,0,0,1-.87-1.78q-26.34-89.5-52.65-179a44.79,44.79,0,0,0,50.21-31.33c17.93,7.06,51.63,20.39,66.86,26.46,3.73,1.49,5.4,1.36,7.6-2.45,19.17-33.06,38.62-65.95,58-98.89,6.6,6.68,13.82,12.39,23.08,15a50,50,0,0,0,12.67,2q0,41.51,0,83Z"/><circle class="cls-1" cx="44.84" cy="134.82" r="44.84"/><circle class="cls-3" cx="467.07" cy="134.82" r="44.84"/><path class="cls-4" d="M291.68,72.85c-6.59,6.68-13.82,12.39-23.08,15a49.83,49.83,0,0,1-12.67,2h0V0c32.3-1.22,55.58,35.59,40.6,64.2C295,67.15,293.3,70,291.68,72.85Z"/><path class="cls-1" d="M255.93,0V89.84A47.31,47.31,0,0,1,224,76.47c-1.17-1.11-2.1-2.62-4-2.61.59-2.12-1.06-3.36-1.95-4.87-14.23-24.13-6.22-52,18.63-64.66A41.82,41.82,0,0,1,255.93,0Z"/><path class="cls-3" d="M255.93,359.85H420.81c0,15.32.19,30.64.07,46a14.12,14.12,0,0,1-14.07,14q-75.43,0-150.87-.12,0-29.91,0-59.83Z"/><path class="cls-1" d="M255.93,359.85q0,29.92,0,59.83-31.69.09-63.37.16-42.18,0-84.34,0c-11.49,0-17.28-5.72-17.29-17.08,0-14.3.08-28.6.13-42.91Z"/><path class="cls-5" d="M255.93,172.85c7.06.14,11.83,3.74,14.91,9.89,3.88,7.74,7.89,15.41,11.55,23.25a7.84,7.84,0,0,0,6.8,4.87c9.51,1.25,19,2.49,28.49,4,12.05,2,17.08,13.71,10.05,23.66-5.51,7.79-13.56,13.15-20.17,19.92-3.9,4-5.43,7.62-4,13.2a218.36,218.36,0,0,1,4.21,22.94c.91,6.2-.22,12-5.63,16.08s-11.19,4-17.26.76c-9.55-5.08-19.31-9.75-29-14.59l.05-.06q0-62,0-123.9Z"/><path class="cls-6" d="M256,172.91q0,62,0,123.9c-9.65,4.84-19.28,9.72-29,14.5-3.58,1.77-7.14,3.29-11.43,1.94-8.71-2.75-13.07-9.85-11.37-18.78s3-17.94,4.87-26.84c.55-2.65.11-4.3-1.83-6.06-7-6.38-13.27-13.52-20.48-19.74-4.34-3.75-7.23-9-5.5-15.17,1.8-6.41,6.17-10.6,12.91-11.67,9.48-1.5,19-2.94,28.49-4.05,3.21-.37,5.09-1.54,6.51-4.42,4.14-8.34,8.6-16.53,12.8-24.85C244.89,175.86,249.75,173.34,256,172.91Z"/></g></g></g></svg>