<svg width="48" height="49" viewBox="0 0 48 49" fill="none" xmlns="http://www.w3.org/2000/svg">
<path d="M34.1993 11.5061C35.8603 8.19954 36.2882 5.72324 35.336 4.75273C34.9224 4.39902 34.3884 4.22618 33.8503 4.27185C31.8666 4.46881 29.9509 5.1163 28.2451 6.16724C23.6449 8.84606 19.4396 12.1738 15.7533 16.0511C6.71565 25.2594 2.65454 33.9554 4.66259 36.0012C5.58289 36.9385 8.11045 36.4718 11.3058 34.8143C13.9215 29.9201 17.2503 25.4581 21.1799 21.5807C24.9928 17.5688 29.3826 14.1717 34.1988 11.505L34.1993 11.5061Z" fill="#FEFEFF"/>
<path d="M47.0567 8.22078L40.5344 1.57549C39.3095 0.466802 37.7002 -0.0958666 36.0658 0.0133932C33.7858 0.095975 31.5409 0.608644 29.4449 1.52582C24.1173 3.68286 18.2706 7.83856 12.981 13.2273C2.41366 23.9933 -2.82364 36.8481 1.54414 41.299L8.0668 47.9435C9.63414 49.5396 13.2248 49.1297 17.9189 46.8155C22.9531 44.3351 28.646 39.9929 33.9494 34.5892C39.2526 29.1863 43.5141 23.3854 45.9491 18.2573C48.2197 13.4749 48.6236 9.81646 47.0566 8.22004L47.0567 8.22078ZM6.15727 38.2363C5.15948 38.293 4.18208 37.932 3.45111 37.2373C-0.0938891 33.6256 6.51912 22.9905 14.5418 14.8175C18.3472 10.8181 22.6892 7.3873 27.4377 4.62681C31.7883 2.26332 34.9377 1.87895 36.547 3.5185C40.092 7.13015 33.479 17.7653 25.4563 25.9383V25.9379C21.6509 29.9373 17.3089 33.3681 12.5605 36.1286C9.97993 37.5303 7.82147 38.2363 6.1569 38.2363L6.15727 38.2363ZM42.0884 20.708C42.1121 21.1893 41.7484 21.5992 41.2757 21.6237C41.261 21.6245 41.2463 21.6245 41.2316 21.6245H41.2319C40.7753 21.6245 40.3991 21.2594 40.3769 20.795C40.3571 20.3956 39.8475 20.0371 39.3769 19.8066C37.911 22.0214 36.3168 24.1455 34.6023 26.1665C34.9789 26.5801 35.239 27.0895 35.3548 27.6413C35.4707 28.1931 35.438 28.7664 35.2605 29.3006C35.1679 29.5125 34.9965 29.6781 34.7838 29.7606C34.5711 29.8436 34.3351 29.8366 34.1275 29.7416C33.9198 29.647 33.7577 29.4716 33.677 29.2549C33.5963 29.0379 33.6035 28.7974 33.6971 28.5862C33.7756 28.2077 33.6795 27.8138 33.437 27.5163C32.4468 28.6403 31.4041 29.7621 30.3092 30.8813C28.4832 32.7413 26.6196 34.4692 24.7721 36.0318C25.1559 36.3946 25.4381 36.8551 25.5906 37.3656C25.7426 37.876 25.7591 38.4187 25.6386 38.9379C25.5246 39.2986 25.195 39.5431 24.823 39.5431C24.7337 39.5431 24.6451 39.5288 24.5601 39.5014C24.1096 39.3534 23.8622 38.8612 24.0074 38.4023C24.1276 38.023 23.779 37.5125 23.4328 37.1365C20.9584 39.1689 18.3065 40.9656 15.5103 42.5047C15.7151 43.0112 15.7833 43.564 15.7079 44.1063C15.6326 44.6486 15.4164 45.1606 15.0817 45.5892C14.7553 45.9385 14.213 45.952 13.8702 45.6195C13.5277 45.287 13.5144 44.7345 13.8408 44.3852C14.0409 44.0541 14.0804 43.6471 13.948 43.2824C12.6392 43.916 11.2544 44.3727 9.82915 44.6403C9.78468 44.6469 9.73984 44.6505 9.69466 44.6505C9.2474 44.6498 8.87618 44.2986 8.84175 43.8444C8.80732 43.3902 9.12115 42.9853 9.56303 42.9145C9.91918 42.8542 10.2718 42.7745 10.6197 42.6762C10.4353 41.7371 10.5218 40.7641 10.8686 39.8743C11.0181 39.4168 11.5038 39.1694 11.9525 39.3222C12.4015 39.4745 12.6444 39.9693 12.4944 40.4268C12.285 40.9629 12.2025 41.5421 12.253 42.1168C13.357 41.6633 14.4305 41.1364 15.4663 40.539C15.2891 39.6054 15.3774 38.6396 15.7206 37.7553C15.8705 37.2978 16.3558 37.0508 16.8049 37.2032C17.2539 37.3559 17.4967 37.8503 17.3468 38.3078C17.2044 38.7149 17.1166 39.1399 17.0864 39.571C17.9845 39.0036 18.9095 38.3726 19.8513 37.6881C19.5235 36.9324 19.3689 36.111 19.3987 35.2855C19.3987 34.8032 19.7825 34.4122 20.2559 34.4122C20.729 34.4122 21.1128 34.8032 21.1128 35.2855C21.102 35.736 21.1562 36.1862 21.2742 36.6207C22.7397 35.4905 24.2321 34.2371 25.7194 32.8877H25.7198C25.3532 32.1105 25.1796 31.2532 25.2144 30.3912C25.2144 29.9092 25.5978 29.5182 26.0713 29.5182C26.5447 29.5182 26.9281 29.9092 26.9281 30.3912C26.9202 30.811 26.9669 31.2298 27.0673 31.6368C27.7484 30.99 28.427 30.3301 29.0973 29.6471C29.3824 29.3566 29.6568 29.0639 29.9351 28.772C29.5245 27.9648 29.3308 27.0615 29.3735 26.1538C29.3735 25.6715 29.7572 25.2805 30.2307 25.2805C30.7037 25.2805 31.0875 25.6715 31.0875 26.1538C31.08 26.5704 31.1255 26.9862 31.2227 27.3912C32.6115 25.8674 33.9009 24.3393 35.0734 22.8341C34.4386 21.9608 34.1369 20.8818 34.2255 19.7984C34.2255 19.316 34.6089 18.9254 35.0824 18.9254C35.5558 18.9254 35.9392 19.316 35.9392 19.7984C35.917 20.3337 36.0002 20.8679 36.1835 21.37C37.8691 19.1326 39.348 16.741 40.6004 14.2255C39.9067 13.6679 39.3669 12.9364 39.0338 12.1026C38.8354 11.6652 39.0226 11.1466 39.452 10.9442C39.8813 10.7418 40.3906 10.9321 40.5897 11.3695C40.7726 11.8047 41.0233 12.207 41.3321 12.5607C41.8751 11.3077 42.1707 9.95832 42.2019 8.58911C42.1936 8.35671 42.2765 8.1309 42.4321 7.96135C42.5878 7.79143 42.8037 7.69204 43.0315 7.68474C43.2592 7.67743 43.4805 7.7633 43.6466 7.92262C43.8123 8.08193 43.9088 8.30228 43.9149 8.53431C43.9891 10.9826 42.6721 14.4357 40.3117 18.3265H40.3121C40.7873 18.5297 41.2016 18.8567 41.5136 19.2748C41.8257 19.6932 42.0236 20.1876 42.0886 20.7086L42.0884 20.708Z" fill="#FEFEFF"/>
</svg>
