<svg width="48" height="48" viewBox="0 0 48 48" fill="none" xmlns="http://www.w3.org/2000/svg">
<path d="M34.1993 11.2938C35.8603 8.0482 36.2881 5.6176 35.3359 4.66498C34.9224 4.3178 34.3883 4.14815 33.8503 4.19298C31.8666 4.38631 29.9509 5.02185 28.2451 6.0534C23.6448 8.68279 19.4395 11.9491 15.7532 15.7549C6.71559 24.7933 2.65447 33.3289 4.66253 35.3369C5.58283 36.2569 8.11039 35.7989 11.3058 34.1719C13.9215 29.368 17.2502 24.9883 21.1799 21.1824C24.9928 17.2446 29.3825 13.9102 34.1987 11.2927L34.1993 11.2938Z" fill="#953B54"/>
<path d="M47.0567 8.06907L40.5344 1.54641C39.3095 0.458188 37.7002 -0.0940974 36.0658 0.013146C33.7858 0.0942039 31.5409 0.597412 29.4449 1.49766C24.1173 3.61489 18.2706 7.69391 12.981 12.9832C2.41366 23.5505 -2.82364 36.1681 1.54414 40.5368L8.0668 47.0588C9.63414 48.6254 13.2248 48.223 17.9189 45.9515C22.9531 43.5169 28.646 39.2549 33.9494 33.9509C39.2526 28.6477 43.5141 22.9539 45.9491 17.9204C48.2197 13.2262 48.6236 9.63531 47.0566 8.06834L47.0567 8.06907ZM6.15726 37.5307C5.15948 37.5863 4.18208 37.232 3.45111 36.5501C-0.0938891 33.0051 6.51912 22.5662 14.5418 14.5441C18.3472 10.6185 22.6892 7.25098 27.4376 4.54143C31.7883 2.22155 34.9377 1.84427 36.547 3.45357C40.092 6.99857 33.479 17.4374 25.4563 25.4596V25.4592C21.6509 29.3848 17.3089 32.7523 12.5605 35.4619C9.97992 36.8377 7.82147 37.5306 6.1569 37.5306L6.15726 37.5307ZM42.0884 20.3259C42.1121 20.7982 41.7484 21.2006 41.2757 21.2247C41.261 21.2254 41.2463 21.2254 41.2316 21.2254H41.2319C40.7753 21.2254 40.3991 20.8671 40.3769 20.4112C40.3571 20.0192 39.8475 19.6674 39.3769 19.4411C37.911 21.615 36.3168 23.6999 34.6023 25.6836C34.9789 26.0896 35.239 26.5896 35.3548 27.1312C35.4707 27.6728 35.438 28.2355 35.2605 28.7599C35.1679 28.9679 34.9965 29.1304 34.7838 29.2114C34.5711 29.2928 34.3351 29.286 34.1275 29.1928C33.9198 29.0999 33.7577 28.9277 33.677 28.715C33.5963 28.502 33.6035 28.266 33.6971 28.0587C33.7756 27.6871 33.6795 27.3005 33.437 27.0085C32.4468 28.1118 31.4041 29.2128 30.3092 30.3114C28.4832 32.1371 26.6196 33.8331 24.7721 35.3669C25.1559 35.723 25.4381 36.1749 25.5906 36.676C25.7426 37.177 25.7591 37.7097 25.6386 38.2194C25.5246 38.5734 25.195 38.8133 24.823 38.8133C24.7337 38.8133 24.6451 38.7993 24.5601 38.7724C24.1096 38.6272 23.8622 38.144 24.0074 37.6936C24.1276 37.3213 23.779 36.8202 23.4328 36.4512C20.9584 38.4461 18.3065 40.2097 15.5103 41.7203C15.7151 42.2174 15.7833 42.7601 15.7079 43.2924C15.6326 43.8246 15.4164 44.3271 15.0817 44.7479C14.7553 45.0907 14.213 45.104 13.8702 44.7776C13.5277 44.4512 13.5144 43.9089 13.8408 43.5661C14.0409 43.2411 14.0804 42.8416 13.948 42.4836C12.6392 43.1056 11.2544 43.5539 9.82915 43.8165C9.78468 43.8229 9.73984 43.8265 9.69466 43.8265C9.2474 43.8258 8.87618 43.4811 8.84175 43.0353C8.80732 42.5895 9.12115 42.1921 9.56303 42.1225C9.91918 42.0633 10.2718 41.9851 10.6197 41.8886C10.4353 40.9669 10.5218 40.0118 10.8686 39.1384C11.0181 38.6894 11.5038 38.4466 11.9525 38.5965C12.4015 38.746 12.6444 39.2317 12.4944 39.6808C12.285 40.2069 12.2025 40.7754 12.253 41.3395C13.357 40.8944 14.4305 40.3773 15.4663 39.7909C15.2891 38.8745 15.3774 37.9265 15.7206 37.0585C15.8705 36.6095 16.3558 36.367 16.8049 36.5166C17.2539 36.6665 17.4967 37.1518 17.3468 37.6009C17.2044 38.0004 17.1166 38.4176 17.0864 38.8408C17.9845 38.2838 18.9095 37.6644 19.8513 36.9926C19.5235 36.2509 19.3689 35.4446 19.3987 34.6343C19.3987 34.1609 19.7825 33.7771 20.2559 33.7771C20.729 33.7771 21.1128 34.1609 21.1128 34.6343C21.102 35.0766 21.1562 35.5184 21.2742 35.9448C22.7397 34.8355 24.2321 33.6053 25.7194 32.2808H25.7198C25.3532 31.5179 25.1796 30.6764 25.2144 29.8303C25.2144 29.3572 25.5978 28.9735 26.0713 28.9735C26.5447 28.9735 26.9281 29.3572 26.9281 29.8303C26.9202 30.2424 26.9669 30.6534 27.0673 31.053C27.7484 30.4181 28.427 29.7704 29.0973 29.1C29.3824 28.8149 29.6568 28.5276 29.9351 28.241C29.5245 27.4487 29.3308 26.5621 29.3735 25.6712C29.3735 25.1978 29.7572 24.814 30.2307 24.814C30.7037 24.814 31.0875 25.1978 31.0875 25.6712C31.08 26.0801 31.1255 26.4882 31.2227 26.8857C32.6115 25.39 33.9009 23.8901 35.0734 22.4128C34.4386 21.5555 34.1369 20.4964 34.2255 19.433C34.2255 18.9596 34.6089 18.5761 35.0824 18.5761C35.5558 18.5761 35.9392 18.9596 35.9392 19.433C35.917 19.9584 36.0002 20.4828 36.1835 20.9756C37.8691 18.7795 39.348 16.4321 40.6004 13.963C39.9067 13.4157 39.3669 12.6977 39.0338 11.8792C38.8354 11.4499 39.0226 10.9409 39.452 10.7422C39.8813 10.5435 40.3906 10.7304 40.5897 11.1597C40.7726 11.5869 41.0233 11.9818 41.3321 12.3289C41.8751 11.099 42.1707 9.77455 42.2019 8.43061C42.1936 8.20249 42.2765 7.98085 42.4321 7.81443C42.5878 7.64765 42.8037 7.55009 43.0315 7.54292C43.2592 7.53575 43.4805 7.62003 43.6466 7.77641C43.8123 7.93279 43.9088 8.14906 43.9148 8.37682C43.9891 10.7799 42.6721 14.1693 40.3117 17.9883H40.3121C40.7873 18.1877 41.2016 18.5088 41.5136 18.9191C41.8257 19.3298 42.0236 19.815 42.0886 20.3265L42.0884 20.3259Z" fill="#953B54"/>
</svg>
